<?xml version="1.0" encoding="UTF-8" standalone="no"?>
<!-- Generator: Adobe Illustrator 19.0.0, SVG Export Plug-In . SVG Version: 6.00 Build 0)  -->

<svg
   version="1.1"
   id="Capa_1"
   x="0px"
   y="0px"
   viewBox="0 0 469.333 469.333"
   style="enable-background:new 0 0 469.333 469.333;"
   xml:space="preserve"
   sodipodi:docname="eye.svg"
   inkscape:version="1.2.2 (b0a8486541, 2022-12-01)"
   xmlns:inkscape="http://www.inkscape.org/namespaces/inkscape"
   xmlns:sodipodi="http://sodipodi.sourceforge.net/DTD/sodipodi-0.dtd"
   xmlns="http://www.w3.org/2000/svg"
   xmlns:svg="http://www.w3.org/2000/svg"><defs
   id="defs45" /><sodipodi:namedview
   id="namedview43"
   pagecolor="#505050"
   bordercolor="#eeeeee"
   borderopacity="1"
   inkscape:showpageshadow="0"
   inkscape:pageopacity="0"
   inkscape:pagecheckerboard="0"
   inkscape:deskcolor="#505050"
   showgrid="false"
   inkscape:zoom="2.1882117"
   inkscape:cx="234.6665"
   inkscape:cy="234.6665"
   inkscape:window-width="2560"
   inkscape:window-height="1361"
   inkscape:window-x="0"
   inkscape:window-y="42"
   inkscape:window-maximized="1"
   inkscape:current-layer="Capa_1" />
<g
   id="g10"
   style="fill:#333333">
	<g
   id="g8"
   style="fill:#333333">
		<g
   id="g6"
   style="fill:#333333">
			<path
   d="M234.667,170.667c-35.307,0-64,28.693-64,64s28.693,64,64,64s64-28.693,64-64S269.973,170.667,234.667,170.667z"
   id="path2"
   style="fill:#333333" />
			<path
   d="M234.667,74.667C128,74.667,36.907,141.013,0,234.667c36.907,93.653,128,160,234.667,160     c106.773,0,197.76-66.347,234.667-160C432.427,141.013,341.44,74.667,234.667,74.667z M234.667,341.333     c-58.88,0-106.667-47.787-106.667-106.667S175.787,128,234.667,128s106.667,47.787,106.667,106.667     S293.547,341.333,234.667,341.333z"
   id="path4"
   style="fill:#333333" />
		</g>
	</g>
</g>
<g
   id="g12">
</g>
<g
   id="g14">
</g>
<g
   id="g16">
</g>
<g
   id="g18">
</g>
<g
   id="g20">
</g>
<g
   id="g22">
</g>
<g
   id="g24">
</g>
<g
   id="g26">
</g>
<g
   id="g28">
</g>
<g
   id="g30">
</g>
<g
   id="g32">
</g>
<g
   id="g34">
</g>
<g
   id="g36">
</g>
<g
   id="g38">
</g>
<g
   id="g40">
</g>
</svg>
